<mxfile host="65bd71144e" modified="2021-01-29T16:48:19.101Z" agent="5.0 (Windows NT 10.0; Win64; x64) AppleWebKit/537.36 (KHTML, like Gecko) Code/1.52.1 Chrome/83.0.4103.122 Electron/9.3.5 Safari/537.36" etag="roEyO4ikSpw6Fdx-FZX2" version="13.10.0" type="embed">
    <diagram id="YLMjfUfvHrZqPBtTVOMM" name="Page-1">
        <mxGraphModel dx="1555" dy="896" grid="1" gridSize="10" guides="1" tooltips="1" connect="1" arrows="1" fold="1" page="1" pageScale="1" pageWidth="850" pageHeight="1100" math="0" shadow="0">
            <root>
                <mxCell id="0"/>
                <mxCell id="1" parent="0"/>
                <mxCell id="P8gG1rITBjQNuqPkPwQO-14" value="" style="rounded=0;whiteSpace=wrap;html=1;fillColor=none;dashed=1;" parent="1" vertex="1">
                    <mxGeometry x="180" y="280" width="1240" height="300" as="geometry"/>
                </mxCell>
                <mxCell id="P8gG1rITBjQNuqPkPwQO-21" style="edgeStyle=orthogonalEdgeStyle;rounded=0;orthogonalLoop=1;jettySize=auto;html=1;" parent="1" source="P8gG1rITBjQNuqPkPwQO-1" target="P8gG1rITBjQNuqPkPwQO-13" edge="1">
                    <mxGeometry relative="1" as="geometry"/>
                </mxCell>
                <mxCell id="P8gG1rITBjQNuqPkPwQO-24" value="Visit Webpage" style="edgeLabel;html=1;align=center;verticalAlign=middle;resizable=0;points=[];labelBackgroundColor=#FF9933;" parent="P8gG1rITBjQNuqPkPwQO-21" vertex="1" connectable="0">
                    <mxGeometry x="0.2903" y="28" relative="1" as="geometry">
                        <mxPoint x="-21" y="28" as="offset"/>
                    </mxGeometry>
                </mxCell>
                <mxCell id="P8gG1rITBjQNuqPkPwQO-1" value="" style="shape=actor;whiteSpace=wrap;html=1;" parent="1" vertex="1">
                    <mxGeometry x="680" y="70" width="160" height="130" as="geometry"/>
                </mxCell>
                <mxCell id="P8gG1rITBjQNuqPkPwQO-12" value="User" style="text;html=1;strokeColor=none;fillColor=none;align=center;verticalAlign=middle;whiteSpace=wrap;rounded=0;" parent="1" vertex="1">
                    <mxGeometry x="715" y="160" width="90" height="20" as="geometry"/>
                </mxCell>
                <mxCell id="P8gG1rITBjQNuqPkPwQO-19" style="edgeStyle=orthogonalEdgeStyle;rounded=0;orthogonalLoop=1;jettySize=auto;html=1;entryX=0;entryY=0.5;entryDx=0;entryDy=0;" parent="1" source="P8gG1rITBjQNuqPkPwQO-13" target="P8gG1rITBjQNuqPkPwQO-15" edge="1">
                    <mxGeometry relative="1" as="geometry">
                        <Array as="points">
                            <mxPoint x="335" y="480"/>
                        </Array>
                    </mxGeometry>
                </mxCell>
                <mxCell id="P8gG1rITBjQNuqPkPwQO-26" value="&lt;div&gt;Point user to application&lt;/div&gt;" style="edgeLabel;html=1;align=center;verticalAlign=middle;resizable=0;points=[];labelBackgroundColor=#FFB366;" parent="P8gG1rITBjQNuqPkPwQO-19" vertex="1" connectable="0">
                    <mxGeometry x="-0.2082" y="-2" relative="1" as="geometry">
                        <mxPoint x="18" y="-2" as="offset"/>
                    </mxGeometry>
                </mxCell>
                <mxCell id="P8gG1rITBjQNuqPkPwQO-13" value="&lt;div&gt;&lt;b&gt;Gunicorn&lt;br&gt;&lt;/b&gt;&lt;/div&gt;&lt;div&gt;Act as a gateway forwarding user to application&lt;br&gt;&lt;b&gt;&lt;/b&gt;&lt;/div&gt;" style="rounded=0;whiteSpace=wrap;html=1;" parent="1" vertex="1">
                    <mxGeometry x="245" y="300" width="180" height="140" as="geometry"/>
                </mxCell>
                <mxCell id="P8gG1rITBjQNuqPkPwQO-23" style="edgeStyle=orthogonalEdgeStyle;rounded=0;orthogonalLoop=1;jettySize=auto;html=1;entryX=0.5;entryY=0;entryDx=0;entryDy=0;" parent="1" source="P8gG1rITBjQNuqPkPwQO-15" target="P8gG1rITBjQNuqPkPwQO-18" edge="1">
                    <mxGeometry relative="1" as="geometry"/>
                </mxCell>
                <mxCell id="P8gG1rITBjQNuqPkPwQO-30" value="Save and receive state of Todo list" style="edgeLabel;html=1;align=center;verticalAlign=middle;resizable=0;points=[];labelBackgroundColor=#FFB366;" parent="P8gG1rITBjQNuqPkPwQO-23" vertex="1" connectable="0">
                    <mxGeometry x="-0.2" y="-1" relative="1" as="geometry">
                        <mxPoint x="-9" y="59" as="offset"/>
                    </mxGeometry>
                </mxCell>
                <mxCell id="P8gG1rITBjQNuqPkPwQO-15" value="&lt;div&gt;&lt;b&gt;Flask App&lt;br&gt;&lt;/b&gt;&lt;/div&gt;&lt;div&gt;Process requests, generate content and serve to user&lt;br&gt;&lt;b&gt;&lt;/b&gt;&lt;/div&gt;" style="rounded=0;whiteSpace=wrap;html=1;" parent="1" vertex="1">
                    <mxGeometry x="660" y="410" width="180" height="140" as="geometry"/>
                </mxCell>
                <mxCell id="P8gG1rITBjQNuqPkPwQO-18" value="&lt;div&gt;&lt;b&gt;Trello&lt;br&gt;&lt;/b&gt;&lt;/div&gt;&lt;div&gt;&lt;span style=&quot;color: rgb(0 , 0 , 0) ; font-family: &amp;#34;helvetica&amp;#34; ; font-size: 12px ; font-style: normal ; font-weight: 400 ; letter-spacing: normal ; text-align: center ; text-indent: 0px ; text-transform: none ; word-spacing: 0px ; display: inline ; float: none&quot;&gt;Store all the Todo Tasks and their current state&lt;/span&gt;&lt;br&gt;&lt;b&gt;&lt;/b&gt;&lt;/div&gt;" style="rounded=0;whiteSpace=wrap;html=1;" parent="1" vertex="1">
                    <mxGeometry x="660" y="698" width="180" height="140" as="geometry"/>
                </mxCell>
            </root>
        </mxGraphModel>
    </diagram>
</mxfile>